<?xml version="1.0" encoding="UTF-8"?>
<svg version="1.1" xmlns="http://www.w3.org/2000/svg" width="48" height="48">
<path d="M0 0 C15.84 0 31.68 0 48 0 C48 15.84 48 31.68 48 48 C32.16 48 16.32 48 0 48 C0 32.16 0 16.32 0 0 Z " fill="#FCF5E1" transform="translate(0,0)"/>
<path d="M0 0 C3.3 0 6.6 0 10 0 C10.08152344 2.54232342 10.14073716 5.08199202 10.1875 7.625 C10.22520508 8.69427734 10.22520508 8.69427734 10.26367188 9.78515625 C10.33012047 14.61375421 9.62270376 17.79353792 7 22 C3.7 25 3.7 25 1 25 C0.3125 23.1875 0.3125 23.1875 0 21 C1 20 2 19 3 18 C3.7269226 14.89160979 3.7269226 14.89160979 4 12 C2.68 12 1.36 12 0 12 C0 8.04 0 4.08 0 0 Z " fill="#263D55" transform="translate(27,11)"/>
<path d="M0 0 C3.3 0 6.6 0 10 0 C10.08152344 2.54232342 10.14073716 5.08199202 10.1875 7.625 C10.22520508 8.69427734 10.22520508 8.69427734 10.26367188 9.78515625 C10.33015251 14.61608234 9.61587059 17.78800498 7 22 C5 23.9375 5 23.9375 3 25 C2.01 24.67 1.02 24.34 0 24 C0.44406101 21.51325833 0.93574804 20.08299212 2.5 18.0625 C4.21715068 15.70141782 4.60234816 13.86309322 5 11 C3.35 11 1.7 11 0 11 C0 7.37 0 3.74 0 0 Z " fill="#1E3750" transform="translate(11,11)"/>
</svg>
